<svg width="1040" height="270" viewBox="0 0 1040 270" fill="none" xmlns="http://www.w3.org/2000/svg">
<g clip-path="url(#clip0_1_1243)">
<path d="M-74.65 88.3498C-78.1796 88.3498 -81.2679 87.0814 -83.9151 84.5445C-86.4519 81.8974 -87.7203 78.809 -87.7203 75.2795C-87.7203 71.75 -86.4519 68.6616 -83.9151 66.0145C-81.2679 63.3673 -78.1796 62.0437 -74.65 62.0437C-71.0102 62.0437 -67.9219 63.3673 -65.385 66.0145C-62.7379 68.6616 -61.4143 71.75 -61.4143 75.2795C-61.4143 78.809 -62.7379 81.8974 -65.385 84.5445C-67.9219 87.0814 -71.0102 88.3498 -74.65 88.3498ZM-85.2386 181V98.2766H-63.896V181H-85.2386ZM1.63257 95.9603C10.677 95.9603 18.1221 98.9935 23.9679 105.06C29.924 111.126 32.902 119.509 32.902 130.208V181H11.5594V132.855C11.5594 127.34 10.0704 123.149 7.09231 120.281C4.11427 117.303 0.143551 115.814 -4.81985 115.814C-10.3347 115.814 -14.7467 117.524 -18.0556 120.943C-21.3645 124.362 -23.019 129.491 -23.019 136.329V181H-44.3616V98.2766H-23.019V107.542C-17.835 99.8208 -9.61781 95.9603 1.63257 95.9603ZM95.6309 83.3864C83.9393 82.504 78.0936 87.1917 78.0936 97.4494V98.2766H95.6309V118.792H78.0936V181H56.7509V118.792H44.8387V98.2766H56.7509V97.4494C56.7509 85.7578 60.0047 76.8788 66.5123 70.8124C73.0199 64.746 82.7261 62.0989 95.6309 62.871V83.3864ZM172.823 170.742C164.331 179.125 153.963 183.316 141.719 183.316C129.476 183.316 119.108 179.125 110.615 170.742C102.233 162.249 98.0415 151.881 98.0415 139.638C98.0415 127.395 102.233 117.082 110.615 108.7C119.108 100.207 129.476 95.9603 141.719 95.9603C153.963 95.9603 164.331 100.207 172.823 108.7C181.316 117.082 185.563 127.395 185.563 139.638C185.563 151.881 181.316 162.249 172.823 170.742ZM125.671 156.018C129.973 160.319 135.322 162.47 141.719 162.47C148.117 162.47 153.466 160.319 157.768 156.018C162.069 151.716 164.22 146.256 164.22 139.638C164.22 133.02 162.069 127.561 157.768 123.259C153.466 118.957 148.117 116.807 141.719 116.807C135.322 116.807 129.973 118.957 125.671 123.259C121.48 127.561 119.384 133.02 119.384 139.638C119.384 146.256 121.48 151.716 125.671 156.018ZM256.498 79.7465C268.19 79.7465 278.558 82.6143 287.602 88.3498C296.647 93.975 303.375 101.034 307.787 109.527C312.199 118.02 314.405 126.954 314.405 136.329C314.405 147.8 311.923 156.679 306.959 162.966C301.996 169.143 295.709 172.231 288.099 172.231C276.958 172.231 269.679 167.875 266.26 159.161C262.068 164.235 256.609 166.772 249.88 166.772C242.821 166.772 236.975 164.235 232.343 159.161C227.821 153.977 225.56 147.469 225.56 139.638C225.56 131.807 227.821 125.355 232.343 120.281C236.975 115.097 242.821 112.505 249.88 112.505C255.836 112.505 260.855 114.546 264.936 118.627V114.325H282.639V152.543C282.639 160.595 285.837 164.621 292.235 164.621C296.978 164.621 300.783 162.249 303.651 157.507C306.629 152.764 308.118 145.705 308.118 136.329C308.118 121.991 303.154 109.913 293.227 100.097C283.301 90.28 271.058 85.3717 256.498 85.3717C241.277 85.3717 228.427 90.6109 217.949 101.089C207.581 111.457 202.397 124.307 202.397 139.638C202.397 155.301 207.802 168.261 218.611 178.518C229.42 188.776 243.042 193.905 259.476 193.905C269.844 193.905 278.778 192.526 286.279 189.769V195.725C278.889 198.262 269.955 199.53 259.476 199.53C241.387 199.53 226.332 193.85 214.309 182.489C202.287 171.239 196.276 156.955 196.276 139.638C196.276 122.983 202.011 108.865 213.482 97.2839C225.063 85.5923 239.402 79.7465 256.498 79.7465ZM254.347 150.889C257.436 150.889 259.917 149.841 261.793 147.745C263.778 145.65 264.771 142.947 264.771 139.638C264.771 136.219 263.778 133.517 261.793 131.531C259.917 129.436 257.436 128.388 254.347 128.388C251.149 128.388 248.557 129.436 246.571 131.531C244.586 133.517 243.593 136.219 243.593 139.638C243.593 142.947 244.586 145.65 246.571 147.745C248.557 149.841 251.149 150.889 254.347 150.889ZM368.886 183.316C356.422 183.316 345.999 179.125 337.616 170.742C329.344 162.36 325.208 151.992 325.208 139.638C325.208 127.285 329.344 116.917 337.616 108.534C345.999 100.152 356.422 95.9603 368.886 95.9603C376.937 95.9603 384.272 97.8906 390.89 101.751C397.508 105.611 402.527 110.795 405.946 117.303L387.581 128.057C385.927 124.638 383.39 121.935 379.971 119.95C376.662 117.965 372.912 116.972 368.72 116.972C362.323 116.972 357.029 119.123 352.837 123.425C348.646 127.616 346.55 133.02 346.55 139.638C346.55 146.146 348.646 151.55 352.837 155.852C357.029 160.043 362.323 162.139 368.72 162.139C373.022 162.139 376.827 161.202 380.136 159.326C383.555 157.341 386.092 154.639 387.747 151.22L406.277 161.808C402.637 168.316 397.508 173.555 390.89 177.526C384.272 181.386 376.937 183.316 368.886 183.316ZM439.553 112.505C441.539 107.211 444.793 103.24 449.315 100.593C453.947 97.9457 459.076 96.6221 464.701 96.6221V120.446C458.194 119.674 452.348 120.998 447.164 124.417C442.09 127.836 439.553 133.517 439.553 141.458V181H418.211V98.2766H439.553V112.505ZM536.984 98.2766H558.326V181H536.984V171.239C530.586 179.29 521.597 183.316 510.016 183.316C498.986 183.316 489.5 179.125 481.559 170.742C473.728 162.249 469.812 151.881 469.812 139.638C469.812 127.395 473.728 117.082 481.559 108.7C489.5 100.207 498.986 95.9603 510.016 95.9603C521.597 95.9603 530.586 99.9862 536.984 108.038V98.2766ZM497.607 156.514C501.909 160.815 507.369 162.966 513.986 162.966C520.604 162.966 526.064 160.815 530.366 156.514C534.778 152.102 536.984 146.477 536.984 139.638C536.984 132.8 534.778 127.23 530.366 122.928C526.064 118.516 520.604 116.31 513.986 116.31C507.369 116.31 501.909 118.516 497.607 122.928C493.306 127.23 491.155 132.8 491.155 139.638C491.155 146.477 493.306 152.102 497.607 156.514ZM622.185 83.3864C610.493 82.504 604.647 87.1917 604.647 97.4494V98.2766H622.185V118.792H604.647V181H583.305V118.792H571.393V98.2766H583.305V97.4494C583.305 85.7578 586.559 76.8788 593.066 70.8124C599.574 64.746 609.28 62.0989 622.185 62.871V83.3864ZM681.87 118.792H663.174V153.205C663.174 156.073 663.891 158.168 665.325 159.492C666.759 160.815 668.855 161.588 671.612 161.808C674.369 161.918 677.789 161.863 681.87 161.643V181C667.2 182.654 656.832 181.276 650.766 176.864C644.81 172.452 641.832 164.566 641.832 153.205V118.792H627.438V98.2766H641.832V81.5665L663.174 75.114V98.2766H681.87V118.792ZM752.63 98.2766H775.462L745.351 181C741.049 192.912 735.314 201.515 728.144 206.81C721.085 212.214 712.261 214.641 701.673 214.089V194.236C707.408 194.346 711.931 193.133 715.24 190.596C718.659 188.059 721.361 183.978 723.346 178.353L689.43 98.2766H712.758L734.266 153.867L752.63 98.2766ZM877.111 95.9603C886.597 95.9603 894.152 99.0487 899.777 105.225C905.513 111.402 908.381 119.674 908.381 130.042V181H887.038V131.531C887.038 126.568 885.825 122.708 883.398 119.95C880.972 117.193 877.552 115.814 873.14 115.814C868.287 115.814 864.482 117.413 861.725 120.612C859.077 123.811 857.754 128.443 857.754 134.509V181H836.411V131.531C836.411 126.568 835.198 122.708 832.771 119.95C830.345 117.193 826.926 115.814 822.514 115.814C817.771 115.814 813.966 117.413 811.098 120.612C808.34 123.811 806.962 128.443 806.962 134.509V181H785.619V98.2766H806.962V107.045C811.925 99.6553 819.591 95.9603 829.959 95.9603C840.106 95.9603 847.606 99.9311 852.46 107.873C857.974 99.9311 866.192 95.9603 877.111 95.9603ZM944.541 148.407C947.409 158.775 955.185 163.959 967.869 163.959C976.031 163.959 982.208 161.202 986.399 155.687L1003.61 165.613C995.444 177.415 983.421 183.316 967.538 183.316C953.861 183.316 942.887 179.18 934.614 170.908C926.342 162.635 922.206 152.212 922.206 139.638C922.206 127.175 926.287 116.807 934.449 108.534C942.611 100.152 953.089 95.9603 965.884 95.9603C978.016 95.9603 987.998 100.152 995.83 108.534C1003.77 116.917 1007.74 127.285 1007.74 139.638C1007.74 142.396 1007.47 145.319 1006.91 148.407H944.541ZM944.21 131.862H986.399C985.186 126.237 982.649 122.046 978.789 119.288C975.038 116.531 970.737 115.152 965.884 115.152C960.148 115.152 955.405 116.641 951.655 119.619C947.905 122.487 945.423 126.568 944.21 131.862ZM1067.54 118.792H1048.84V153.205C1048.84 156.073 1049.56 158.168 1050.99 159.492C1052.42 160.815 1054.52 161.588 1057.28 161.808C1060.03 161.918 1063.45 161.863 1067.54 161.643V181C1052.87 182.654 1042.5 181.276 1036.43 176.864C1030.48 172.452 1027.5 164.566 1027.5 153.205V118.792H1013.1V98.2766H1027.5V81.5665L1048.84 75.114V98.2766H1067.54V118.792ZM1142.87 98.2766H1164.21V181H1142.87V171.239C1136.47 179.29 1127.48 183.316 1115.9 183.316C1104.87 183.316 1095.38 179.125 1087.44 170.742C1079.61 162.249 1075.7 151.881 1075.7 139.638C1075.7 127.395 1079.61 117.082 1087.44 108.7C1095.38 100.207 1104.87 95.9603 1115.9 95.9603C1127.48 95.9603 1136.47 99.9862 1142.87 108.038V98.2766ZM1103.49 156.514C1107.79 160.815 1113.25 162.966 1119.87 162.966C1126.49 162.966 1131.95 160.815 1136.25 156.514C1140.66 152.102 1142.87 146.477 1142.87 139.638C1142.87 132.8 1140.66 127.23 1136.25 122.928C1131.95 118.516 1126.49 116.31 1119.87 116.31C1113.25 116.31 1107.79 118.516 1103.49 122.928C1099.19 127.23 1097.04 132.8 1097.04 139.638C1097.04 146.477 1099.19 152.102 1103.49 156.514ZM1238 98.2766H1261.49L1230.05 181H1205.73L1174.3 98.2766H1197.79L1217.81 156.183L1238 98.2766ZM1286.58 148.407C1289.45 158.775 1297.23 163.959 1309.91 163.959C1318.07 163.959 1324.25 161.202 1328.44 155.687L1345.65 165.613C1337.49 177.415 1325.46 183.316 1309.58 183.316C1295.9 183.316 1284.93 179.18 1276.66 170.908C1268.38 162.635 1264.25 152.212 1264.25 139.638C1264.25 127.175 1268.33 116.807 1276.49 108.534C1284.65 100.152 1295.13 95.9603 1307.93 95.9603C1320.06 95.9603 1330.04 100.152 1337.87 108.534C1345.81 116.917 1349.78 127.285 1349.78 139.638C1349.78 142.396 1349.51 145.319 1348.96 148.407H1286.58ZM1286.25 131.862H1328.44C1327.23 126.237 1324.69 122.046 1320.83 119.288C1317.08 116.531 1312.78 115.152 1307.93 115.152C1302.19 115.152 1297.45 116.641 1293.7 119.619C1289.95 122.487 1287.47 126.568 1286.25 131.862ZM1386.03 112.505C1388.01 107.211 1391.26 103.24 1395.79 100.593C1400.42 97.9457 1405.55 96.6221 1411.17 96.6221V120.446C1404.67 119.674 1398.82 120.998 1393.64 124.417C1388.56 127.836 1386.03 133.517 1386.03 141.458V181H1364.68V98.2766H1386.03V112.505ZM1440.76 121.77C1440.76 123.976 1442.19 125.796 1445.06 127.23C1448.04 128.553 1451.62 129.767 1455.81 130.87C1460.01 131.862 1464.2 133.186 1468.39 134.84C1472.58 136.385 1476.11 139.032 1478.98 142.782C1481.95 146.532 1483.44 151.22 1483.44 156.845C1483.44 165.338 1480.25 171.9 1473.85 176.533C1467.56 181.055 1459.67 183.316 1450.19 183.316C1433.2 183.316 1421.62 176.754 1415.45 163.628L1433.98 153.205C1436.4 160.374 1441.81 163.959 1450.19 163.959C1457.8 163.959 1461.61 161.588 1461.61 156.845C1461.61 154.639 1460.12 152.874 1457.14 151.55C1454.27 150.117 1450.74 148.848 1446.55 147.745C1442.36 146.642 1438.17 145.263 1433.98 143.609C1429.78 141.955 1426.2 139.363 1423.22 135.833C1420.35 132.193 1418.92 127.671 1418.92 122.266C1418.92 114.104 1421.9 107.707 1427.85 103.075C1433.92 98.3317 1441.42 95.9603 1450.35 95.9603C1457.08 95.9603 1463.2 97.5045 1468.72 100.593C1474.23 103.571 1478.59 107.873 1481.79 113.498L1463.59 123.425C1460.94 117.799 1456.53 114.987 1450.35 114.987C1447.6 114.987 1445.28 115.593 1443.41 116.807C1441.64 118.02 1440.76 119.674 1440.76 121.77ZM1514.07 148.407C1516.94 158.775 1524.72 163.959 1537.4 163.959C1545.56 163.959 1551.74 161.202 1555.93 155.687L1573.14 165.613C1564.97 177.415 1552.95 183.316 1537.07 183.316C1523.39 183.316 1512.42 179.18 1504.15 170.908C1495.87 162.635 1491.74 152.212 1491.74 139.638C1491.74 127.175 1495.82 116.807 1503.98 108.534C1512.14 100.152 1522.62 95.9603 1535.41 95.9603C1547.55 95.9603 1557.53 100.152 1565.36 108.534C1573.3 116.917 1577.27 127.285 1577.27 139.638C1577.27 142.396 1577 145.319 1576.45 148.407H1514.07ZM1513.74 131.862H1555.93C1554.72 126.237 1552.18 122.046 1548.32 119.288C1544.57 116.531 1540.27 115.152 1535.41 115.152C1529.68 115.152 1524.94 116.641 1521.19 119.619C1517.44 122.487 1514.95 126.568 1513.74 131.862ZM1607.88 179.015C1605.13 181.772 1601.82 183.151 1597.96 183.151C1594.1 183.151 1590.79 181.772 1588.03 179.015C1585.27 176.257 1583.89 172.948 1583.89 169.088C1583.89 165.227 1585.27 161.918 1588.03 159.161C1590.79 156.404 1594.1 155.025 1597.96 155.025C1601.82 155.025 1605.13 156.404 1607.88 159.161C1610.64 161.918 1612.02 165.227 1612.02 169.088C1612.02 172.948 1610.64 176.257 1607.88 179.015ZM1662.57 183.316C1650.11 183.316 1639.68 179.125 1631.3 170.742C1623.03 162.36 1618.89 151.992 1618.89 139.638C1618.89 127.285 1623.03 116.917 1631.3 108.534C1639.68 100.152 1650.11 95.9603 1662.57 95.9603C1670.62 95.9603 1677.96 97.8906 1684.57 101.751C1691.19 105.611 1696.21 110.795 1699.63 117.303L1681.27 128.057C1679.61 124.638 1677.07 121.935 1673.65 119.95C1670.35 117.965 1666.6 116.972 1662.4 116.972C1656.01 116.972 1650.71 119.123 1646.52 123.425C1642.33 127.616 1640.23 133.02 1640.23 139.638C1640.23 146.146 1642.33 151.55 1646.52 155.852C1650.71 160.043 1656.01 162.139 1662.4 162.139C1666.71 162.139 1670.51 161.202 1673.82 159.326C1677.24 157.341 1679.78 154.639 1681.43 151.22L1699.96 161.808C1696.32 168.316 1691.19 173.555 1684.57 177.526C1677.96 181.386 1670.62 183.316 1662.57 183.316ZM1780.44 170.742C1771.94 179.125 1761.58 183.316 1749.33 183.316C1737.09 183.316 1726.72 179.125 1718.23 170.742C1709.85 162.249 1705.65 151.881 1705.65 139.638C1705.65 127.395 1709.85 117.082 1718.23 108.7C1726.72 100.207 1737.09 95.9603 1749.33 95.9603C1761.58 95.9603 1771.94 100.207 1780.44 108.7C1788.93 117.082 1793.18 127.395 1793.18 139.638C1793.18 151.881 1788.93 162.249 1780.44 170.742ZM1733.28 156.018C1737.59 160.319 1742.94 162.47 1749.33 162.47C1755.73 162.47 1761.08 160.319 1765.38 156.018C1769.68 151.716 1771.83 146.256 1771.83 139.638C1771.83 133.02 1769.68 127.561 1765.38 123.259C1761.08 118.957 1755.73 116.807 1749.33 116.807C1742.94 116.807 1737.59 118.957 1733.28 123.259C1729.09 127.561 1727 133.02 1727 139.638C1727 146.256 1729.09 151.716 1733.28 156.018ZM1899.68 95.9603C1909.17 95.9603 1916.72 99.0487 1922.35 105.225C1928.08 111.402 1930.95 119.674 1930.95 130.042V181H1909.61V131.531C1909.61 126.568 1908.4 122.708 1905.97 119.95C1903.54 117.193 1900.12 115.814 1895.71 115.814C1890.86 115.814 1887.05 117.413 1884.3 120.612C1881.65 123.811 1880.33 128.443 1880.33 134.509V181H1858.98V131.531C1858.98 126.568 1857.77 122.708 1855.34 119.95C1852.92 117.193 1849.5 115.814 1845.08 115.814C1840.34 115.814 1836.54 117.413 1833.67 120.612C1830.91 123.811 1829.53 128.443 1829.53 134.509V181H1808.19V98.2766H1829.53V107.045C1834.5 99.6553 1842.16 95.9603 1852.53 95.9603C1862.68 95.9603 1870.18 99.9311 1875.03 107.873C1880.55 99.9311 1888.76 95.9603 1899.68 95.9603Z" fill="white"/>
</g>
<defs>
<clipPath id="clip0_1_1243">
<rect width="1061" height="270" fill="white"/>
</clipPath>
</defs>
</svg>
