<svg width="670" height="748" viewBox="0 0 670 748" fill="none" xmlns="http://www.w3.org/2000/svg">
<g filter="url(#filter0_b_1_1283)">
<rect x="335" y="563" width="322" height="554" rx="1" transform="rotate(-180 335 563)" fill="url(#paint0_linear_1_1283)"/>
</g>
<g filter="url(#filter1_b_1_1283)">
<rect x="657" y="563" width="322" height="554" rx="1" transform="rotate(-180 657 563)" fill="url(#paint1_linear_1_1283)"/>
</g>
<path d="M334.5 9L334.5 1357L335.5 1357L335.5 9L334.5 9ZM321.041 9L321.041 1357L322.041 1357L322.041 9L321.041 9ZM307.583 9L307.583 1357L308.583 1357L308.583 9L307.583 9ZM294.124 9L294.124 1357L295.124 1357L295.124 9L294.124 9ZM280.665 9L280.665 1357L281.665 1357L281.665 9L280.665 9ZM267.206 9L267.206 1357L268.206 1357L268.206 9L267.206 9ZM253.748 9L253.748 1357L254.748 1357L254.748 9L253.748 9ZM240.289 9L240.289 1357L241.289 1357L241.289 9L240.289 9ZM226.83 9L226.83 1357L227.83 1357L227.83 9L226.83 9Z" fill="url(#paint2_linear_1_1283)" fill-opacity="0.6"/>
<path d="M226.83 9L226.83 1357L227.83 1357L227.83 9L226.83 9ZM213.371 9L213.371 1357L214.371 1357L214.371 9L213.371 9ZM199.913 9L199.913 1357L200.913 1357L200.913 9L199.913 9ZM186.454 9L186.454 1357L187.454 1357L187.454 9L186.454 9ZM172.995 9L172.995 1357L173.995 1357L173.995 9L172.995 9ZM159.536 9L159.536 1357L160.536 1357L160.536 9L159.536 9ZM146.078 9L146.078 1357L147.078 1357L147.078 9L146.078 9ZM132.619 9L132.619 1357L133.619 1357L133.619 9L132.619 9ZM119.16 9L119.16 1357L120.16 1357L120.16 9L119.16 9Z" fill="url(#paint3_linear_1_1283)" fill-opacity="0.6"/>
<path d="M120.17 9L120.17 1357L121.17 1357L121.17 9L120.17 9ZM106.711 9L106.711 1357L107.711 1357L107.711 9L106.711 9ZM93.2523 9L93.2522 1357L94.2522 1357L94.2523 9L93.2523 9ZM79.7936 9L79.7935 1357L80.7935 1357L80.7936 9L79.7936 9ZM66.3349 9L66.3348 1357L67.3348 1357L67.3349 9L66.3349 9ZM52.8762 9L52.8761 1357L53.8761 1357L53.8762 9L52.8762 9ZM39.4174 9L39.4174 1357L40.4174 1357L40.4174 9L39.4174 9ZM25.9587 9L25.9587 1357L26.9587 1357L26.9587 9L25.9587 9ZM12.5 9L12.4999 1357L13.4999 1357L13.5 9L12.5 9Z" fill="url(#paint4_linear_1_1283)" fill-opacity="0.6"/>
<path d="M656.5 9L656.5 1357L657.5 1357L657.5 9L656.5 9ZM643.041 9L643.041 1357L644.041 1357L644.041 9L643.041 9ZM629.583 9L629.583 1357L630.583 1357L630.583 9L629.583 9ZM616.124 9L616.124 1357L617.124 1357L617.124 9L616.124 9ZM602.665 9L602.665 1357L603.665 1357L603.665 9L602.665 9ZM589.206 9L589.206 1357L590.206 1357L590.206 9L589.206 9ZM575.748 9L575.748 1357L576.748 1357L576.748 9L575.748 9ZM562.289 9L562.289 1357L563.289 1357L563.289 9L562.289 9ZM548.83 9L548.83 1357L549.83 1357L549.83 9L548.83 9Z" fill="url(#paint5_linear_1_1283)" fill-opacity="0.6"/>
<path d="M548.83 9L548.83 1357L549.83 1357L549.83 9L548.83 9ZM535.371 9L535.371 1357L536.371 1357L536.371 9L535.371 9ZM521.913 9L521.913 1357L522.913 1357L522.913 9L521.913 9ZM508.454 9L508.454 1357L509.454 1357L509.454 9L508.454 9ZM494.995 9L494.995 1357L495.995 1357L495.995 9L494.995 9ZM481.536 9L481.536 1357L482.536 1357L482.536 9L481.536 9ZM468.078 9L468.078 1357L469.078 1357L469.078 9L468.078 9ZM454.619 9L454.619 1357L455.619 1357L455.619 9L454.619 9ZM441.16 9L441.16 1357L442.16 1357L442.16 9L441.16 9Z" fill="url(#paint6_linear_1_1283)" fill-opacity="0.6"/>
<path d="M442.17 9L442.17 1357L443.17 1357L443.17 9L442.17 9ZM428.711 9L428.711 1357L429.711 1357L429.711 9L428.711 9ZM415.252 9L415.252 1357L416.252 1357L416.252 9L415.252 9ZM401.794 9L401.794 1357L402.794 1357L402.794 9L401.794 9ZM388.335 9L388.335 1357L389.335 1357L389.335 9L388.335 9ZM374.876 9L374.876 1357L375.876 1357L375.876 9L374.876 9ZM361.417 9L361.417 1357L362.417 1357L362.417 9L361.417 9ZM347.959 9L347.959 1357L348.959 1357L348.959 9L347.959 9ZM334.5 9L334.5 1357L335.5 1357L335.5 9L334.5 9Z" fill="url(#paint7_linear_1_1283)" fill-opacity="0.6"/>
<g filter="url(#filter2_d_1_1283)">
<rect x="657" y="15" width="644" height="5.99995" rx="2.99998" transform="rotate(-180 657 15)" fill="#56FFEB"/>
</g>
<defs>
<filter id="filter0_b_1_1283" x="-17.0001" y="-21" width="382" height="614" filterUnits="userSpaceOnUse" color-interpolation-filters="sRGB">
<feFlood flood-opacity="0" result="BackgroundImageFix"/>
<feGaussianBlur in="BackgroundImage" stdDeviation="15"/>
<feComposite in2="SourceAlpha" operator="in" result="effect1_backgroundBlur_1_1283"/>
<feBlend mode="normal" in="SourceGraphic" in2="effect1_backgroundBlur_1_1283" result="shape"/>
</filter>
<filter id="filter1_b_1_1283" x="305" y="-21" width="382" height="614" filterUnits="userSpaceOnUse" color-interpolation-filters="sRGB">
<feFlood flood-opacity="0" result="BackgroundImageFix"/>
<feGaussianBlur in="BackgroundImage" stdDeviation="15"/>
<feComposite in2="SourceAlpha" operator="in" result="effect1_backgroundBlur_1_1283"/>
<feBlend mode="normal" in="SourceGraphic" in2="effect1_backgroundBlur_1_1283" result="shape"/>
</filter>
<filter id="filter2_d_1_1283" x="0" y="0" width="670" height="32" filterUnits="userSpaceOnUse" color-interpolation-filters="sRGB">
<feFlood flood-opacity="0" result="BackgroundImageFix"/>
<feColorMatrix in="SourceAlpha" type="matrix" values="0 0 0 0 0 0 0 0 0 0 0 0 0 0 0 0 0 0 127 0" result="hardAlpha"/>
<feOffset dy="4"/>
<feGaussianBlur stdDeviation="6.5"/>
<feComposite in2="hardAlpha" operator="out"/>
<feColorMatrix type="matrix" values="0 0 0 0 0.74902 0 0 0 0 0.227451 0 0 0 0 1 0 0 0 0.44 0"/>
<feBlend mode="normal" in2="BackgroundImageFix" result="effect1_dropShadow_1_1283"/>
<feBlend mode="normal" in="SourceGraphic" in2="effect1_dropShadow_1_1283" result="shape"/>
</filter>
<linearGradient id="paint0_linear_1_1283" x1="496" y1="563" x2="496" y2="1117" gradientUnits="userSpaceOnUse">
<stop stop-color="#3A4EFF" stop-opacity="0"/>
<stop offset="1" stop-color="#9C3AFF" stop-opacity="0.14"/>
</linearGradient>
<linearGradient id="paint1_linear_1_1283" x1="818" y1="563" x2="818" y2="1117" gradientUnits="userSpaceOnUse">
<stop stop-color="#3A4EFF" stop-opacity="0"/>
<stop offset="1" stop-color="#9C3AFF" stop-opacity="0.14"/>
</linearGradient>
<linearGradient id="paint2_linear_1_1283" x1="281.166" y1="9.0001" x2="174.082" y2="1348.75" gradientUnits="userSpaceOnUse">
<stop stop-color="#A034D9" stop-opacity="0.34"/>
<stop offset="0.514801" stop-color="white" stop-opacity="0"/>
<stop offset="1" stop-color="white" stop-opacity="0"/>
</linearGradient>
<linearGradient id="paint3_linear_1_1283" x1="173.497" y1="9.0001" x2="66.4119" y2="1348.75" gradientUnits="userSpaceOnUse">
<stop stop-color="#A034D9" stop-opacity="0.34"/>
<stop offset="0.514801" stop-color="white" stop-opacity="0"/>
<stop offset="1" stop-color="white" stop-opacity="0"/>
</linearGradient>
<linearGradient id="paint4_linear_1_1283" x1="66.8362" y1="9.0001" x2="-40.2484" y2="1348.75" gradientUnits="userSpaceOnUse">
<stop stop-color="#A034D9" stop-opacity="0.34"/>
<stop offset="0.514801" stop-color="white" stop-opacity="0"/>
<stop offset="1" stop-color="white" stop-opacity="0"/>
</linearGradient>
<linearGradient id="paint5_linear_1_1283" x1="603.166" y1="9.0001" x2="496.082" y2="1348.75" gradientUnits="userSpaceOnUse">
<stop stop-color="#A034D9" stop-opacity="0.34"/>
<stop offset="0.514801" stop-color="white" stop-opacity="0"/>
<stop offset="1" stop-color="white" stop-opacity="0"/>
</linearGradient>
<linearGradient id="paint6_linear_1_1283" x1="495.497" y1="9.0001" x2="388.412" y2="1348.75" gradientUnits="userSpaceOnUse">
<stop stop-color="#A034D9" stop-opacity="0.34"/>
<stop offset="0.514801" stop-color="white" stop-opacity="0"/>
<stop offset="1" stop-color="white" stop-opacity="0"/>
</linearGradient>
<linearGradient id="paint7_linear_1_1283" x1="388.836" y1="9.0001" x2="281.752" y2="1348.75" gradientUnits="userSpaceOnUse">
<stop stop-color="#A034D9" stop-opacity="0.34"/>
<stop offset="0.514801" stop-color="white" stop-opacity="0"/>
<stop offset="1" stop-color="white" stop-opacity="0"/>
</linearGradient>
</defs>
</svg>
