<svg width="79" height="26" viewBox="0 0 79 26" fill="none" xmlns="http://www.w3.org/2000/svg">
<path d="M65 10L71.5 16L78 10" stroke="white" stroke-width="2"/>
<path d="M2.29394 4.932V18H5.44394V9.126L9.33194 18H12.0499L16.0999 9.27V18H19.2499V4.932H15.0559L10.7359 14.292L6.52394 4.932H2.29394ZM21.3472 13.122C21.3472 16.326 23.6872 18.342 27.5212 18.342C31.3552 18.342 33.6772 16.326 33.6772 13.122C33.6772 9.936 31.3912 7.92 27.5212 7.92C23.6512 7.92 21.3472 9.936 21.3472 13.122ZM24.6232 13.14C24.6232 11.43 25.7572 10.242 27.5212 10.242C29.2492 10.242 30.4012 11.412 30.4012 13.122C30.4012 14.832 29.2492 16.02 27.5212 16.02C25.7572 16.02 24.6232 14.85 24.6232 13.14ZM38.5703 8.262H35.5463V18H38.5703V13.644C38.5703 11.682 39.6503 10.512 41.4143 10.512C41.7563 10.512 42.2063 10.53 42.3683 10.548V7.992C42.1343 7.956 41.7383 7.92 41.5223 7.92C40.4243 7.92 39.4703 8.46 38.5703 9.54V8.262ZM54.7708 14.832H51.4408C51.0808 15.732 50.2168 16.254 49.0648 16.254C47.6248 16.254 46.5988 15.336 46.5988 13.914H54.9328V13.5C54.9328 9.918 52.8268 7.92 49.0648 7.92C45.4108 7.92 43.1968 9.936 43.1968 13.122C43.1968 16.326 45.4468 18.342 49.0648 18.342C51.9448 18.342 53.9608 17.046 54.7708 14.832ZM46.6888 11.898C46.7968 10.692 47.7328 9.936 49.1368 9.936C50.5408 9.936 51.4768 10.692 51.5848 11.898H46.6888Z" fill="white"/>
</svg>
