<svg width="1188" height="403" viewBox="0 0 1188 403" fill="none" xmlns="http://www.w3.org/2000/svg">
<g filter="url(#filter0_b_1369_232)">
<rect width="360" height="1168" rx="1" transform="matrix(3.08788e-08 1 1 -6.34014e-08 0 20)" fill="url(#paint0_linear_1369_232)"/>
</g>
<path d="M1168.14 20.5H14V19.5H1168.14V20.5ZM1168.14 35.547H14V34.547H1168.14V35.547ZM1168.14 50.594H14V49.594H1168.14V50.594ZM1168.14 65.641H14V64.641H1168.14V65.641ZM1168.14 80.688H14V79.688H1168.14V80.688ZM1168.14 95.735H14V94.735H1168.14V95.735ZM1168.14 110.782H14V109.782H1168.14V110.782ZM1168.14 125.829H14V124.829H1168.14V125.829ZM1168.14 140.876H14V139.876H1168.14V140.876Z" fill="url(#paint1_linear_1369_232)" fill-opacity="0.6"/>
<path d="M1168.14 140.876H14V139.876H1168.14V140.876ZM1168.14 155.923H14V154.923H1168.14V155.923ZM1168.14 170.97H14V169.97H1168.14V170.97ZM1168.14 186.017H14V185.017H1168.14V186.017ZM1168.14 201.064H14V200.064H1168.14V201.064ZM1168.14 216.111H14V215.111H1168.14V216.111ZM1168.14 231.158H14V230.158H1168.14V231.158ZM1168.14 246.205H14V245.205H1168.14V246.205ZM1168.14 261.252H14V260.252H1168.14V261.252Z" fill="url(#paint2_linear_1369_232)" fill-opacity="0.6"/>
<path d="M1168.14 260.124H14V259.124H1168.14V260.124ZM1168.14 275.171H14V274.171H1168.14V275.171ZM1168.14 290.218H14V289.218H1168.14V290.218ZM1168.14 305.265H14V304.265H1168.14V305.265ZM1168.14 320.312H14V319.312H1168.14V320.312ZM1168.14 335.358H14V334.358H1168.14V335.358ZM1168.14 350.405H14V349.405H1168.14V350.405ZM1168.14 365.452H14V364.452H1168.14V365.452ZM1168.14 380.499H14V379.499H1168.14V380.499Z" fill="url(#paint3_linear_1369_232)" fill-opacity="0.6"/>
<path d="M714.14 357L710.887 376.747L691.14 380L710.887 383.253L714.14 403L717.392 383.253L737.14 380L717.392 376.747L714.14 357Z" fill="white"/>
<g filter="url(#filter1_d_1369_232)">
<rect width="361" height="5.99996" rx="2.99998" transform="matrix(-1.0852e-07 -1 -1 1.58789e-07 1174.14 370)" fill="#7F5CFF"/>
</g>
<defs>
<filter id="filter0_b_1369_232" x="-30" y="-10.0001" width="1228" height="420" filterUnits="userSpaceOnUse" color-interpolation-filters="sRGB">
<feFlood flood-opacity="0" result="BackgroundImageFix"/>
<feGaussianBlur in="BackgroundImage" stdDeviation="15"/>
<feComposite in2="SourceAlpha" operator="in" result="effect1_backgroundBlur_1369_232"/>
<feBlend mode="normal" in="SourceGraphic" in2="effect1_backgroundBlur_1369_232" result="shape"/>
</filter>
<filter id="filter1_d_1369_232" x="1155.14" y="0" width="32" height="387" filterUnits="userSpaceOnUse" color-interpolation-filters="sRGB">
<feFlood flood-opacity="0" result="BackgroundImageFix"/>
<feColorMatrix in="SourceAlpha" type="matrix" values="0 0 0 0 0 0 0 0 0 0 0 0 0 0 0 0 0 0 127 0" result="hardAlpha"/>
<feOffset dy="4"/>
<feGaussianBlur stdDeviation="6.5"/>
<feComposite in2="hardAlpha" operator="out"/>
<feColorMatrix type="matrix" values="0 0 0 0 0.74902 0 0 0 0 0.227451 0 0 0 0 1 0 0 0 0.44 0"/>
<feBlend mode="normal" in2="BackgroundImageFix" result="effect1_dropShadow_1369_232"/>
<feBlend mode="normal" in="SourceGraphic" in2="effect1_dropShadow_1369_232" result="shape"/>
</filter>
<linearGradient id="paint0_linear_1369_232" x1="180" y1="0" x2="180" y2="1168" gradientUnits="userSpaceOnUse">
<stop stop-color="#3A4EFF" stop-opacity="0"/>
<stop offset="1" stop-color="#9C3AFF" stop-opacity="0.14"/>
</linearGradient>
<linearGradient id="paint1_linear_1369_232" x1="1168.14" y1="80.1865" x2="18.0442" y2="150.584" gradientUnits="userSpaceOnUse">
<stop stop-color="#A034D9" stop-opacity="0.34"/>
<stop offset="0.514801" stop-color="white" stop-opacity="0"/>
<stop offset="1" stop-color="white" stop-opacity="0"/>
</linearGradient>
<linearGradient id="paint2_linear_1369_232" x1="1168.14" y1="200.563" x2="18.0442" y2="270.96" gradientUnits="userSpaceOnUse">
<stop stop-color="#A034D9" stop-opacity="0.34"/>
<stop offset="0.514801" stop-color="white" stop-opacity="0"/>
<stop offset="1" stop-color="white" stop-opacity="0"/>
</linearGradient>
<linearGradient id="paint3_linear_1369_232" x1="1168.14" y1="319.81" x2="18.0442" y2="390.208" gradientUnits="userSpaceOnUse">
<stop stop-color="#A034D9" stop-opacity="0.34"/>
<stop offset="0.514801" stop-color="white" stop-opacity="0"/>
<stop offset="1" stop-color="white" stop-opacity="0"/>
</linearGradient>
</defs>
</svg>
