<svg width="1363" height="487" viewBox="0 0 1363 487" fill="none" xmlns="http://www.w3.org/2000/svg">
<g filter="url(#filter0_b_1369_231)">
<rect width="451" height="1210" rx="1" transform="matrix(-1.10615e-07 -1 -1 1.56228e-07 1224 461)" fill="url(#paint0_linear_1369_231)"/>
</g>
<path d="M12.9071 6.94391L1360.91 6.94389L1360.91 5.94389L12.9071 5.94391L12.9071 6.94391ZM12.9071 18.3222L1360.91 18.3222L1360.91 17.3222L12.9071 17.3222L12.9071 18.3222ZM12.9071 29.7004L1360.91 29.7004L1360.91 28.7004L12.9071 28.7004L12.9071 29.7004ZM12.9071 41.0787L1360.91 41.0787L1360.91 40.0787L12.9071 40.0787L12.9071 41.0787ZM12.9071 52.457L1360.91 52.457L1360.91 51.457L12.9071 51.457L12.9071 52.457ZM12.9071 63.8352L1360.91 63.8352L1360.91 62.8352L12.9071 62.8352L12.9071 63.8352ZM12.9071 75.2135L1360.91 75.2135L1360.91 74.2135L12.9071 74.2135L12.9071 75.2135ZM12.9071 86.5918L1360.91 86.5918L1360.91 85.5918L12.9071 85.5918L12.9071 86.5918ZM12.9071 97.97L1360.91 97.97L1360.91 96.97L12.9071 96.97L12.9071 97.97Z" fill="url(#paint1_linear_1369_231)" fill-opacity="0.6"/>
<path d="M12.9071 97.9702L1360.91 97.9702L1360.91 96.9702L12.9071 96.9702L12.9071 97.9702ZM12.9071 109.348L1360.91 109.348L1360.91 108.348L12.9071 108.348L12.9071 109.348ZM12.9071 120.727L1360.91 120.727L1360.91 119.727L12.9071 119.727L12.9071 120.727ZM12.9071 132.105L1360.91 132.105L1360.91 131.105L12.9071 131.105L12.9071 132.105ZM12.9071 143.483L1360.91 143.483L1360.91 142.483L12.9071 142.483L12.9071 143.483ZM12.9071 154.862L1360.91 154.862L1360.91 153.862L12.9071 153.862L12.9071 154.862ZM12.9071 166.24L1360.91 166.24L1360.91 165.24L12.9071 165.24L12.9071 166.24ZM12.9071 177.618L1360.91 177.618L1360.91 176.618L12.9071 176.618L12.9071 177.618ZM12.9071 188.996L1360.91 188.996L1360.91 187.996L12.9071 187.996L12.9071 188.996Z" fill="url(#paint2_linear_1369_231)" fill-opacity="0.6"/>
<path d="M12.9071 188.143L1360.91 188.143L1360.91 187.143L12.9071 187.143L12.9071 188.143ZM12.9071 199.521L1360.91 199.521L1360.91 198.521L12.9071 198.521L12.9071 199.521ZM12.9071 210.899L1360.91 210.899L1360.91 209.899L12.9071 209.899L12.9071 210.899ZM12.9071 222.277L1360.91 222.277L1360.91 221.277L12.9071 221.277L12.9071 222.277ZM12.9071 233.656L1360.91 233.656L1360.91 232.656L12.9071 232.656L12.9071 233.656ZM12.9071 245.034L1360.91 245.034L1360.91 244.034L12.9071 244.034L12.9071 245.034ZM12.9071 256.412L1360.91 256.412L1360.91 255.412L12.9071 255.412L12.9071 256.412ZM12.9071 267.791L1360.91 267.791L1360.91 266.791L12.9071 266.791L12.9071 267.791ZM12.9071 279.169L1360.91 279.169L1360.91 278.169L12.9071 278.169L12.9071 279.169Z" fill="url(#paint3_linear_1369_231)" fill-opacity="0.6"/>
<path d="M12.9071 279.169L1360.91 279.169L1360.91 278.169L12.9071 278.169L12.9071 279.169ZM12.9071 290.547L1360.91 290.547L1360.91 289.547L12.9071 289.547L12.9071 290.547ZM12.9071 301.926L1360.91 301.926L1360.91 300.926L12.9071 300.926L12.9071 301.926ZM12.9071 313.304L1360.91 313.304L1360.91 312.304L12.9071 312.304L12.9071 313.304ZM12.9071 324.682L1360.91 324.682L1360.91 323.682L12.9071 323.682L12.9071 324.682ZM12.9071 336.06L1360.91 336.06L1360.91 335.06L12.9071 335.06L12.9071 336.06ZM12.9071 347.439L1360.91 347.439L1360.91 346.439L12.9071 346.439L12.9071 347.439ZM12.9071 358.817L1360.91 358.817L1360.91 357.817L12.9071 357.817L12.9071 358.817ZM12.9071 370.195L1360.91 370.195L1360.91 369.195L12.9071 369.195L12.9071 370.195Z" fill="url(#paint4_linear_1369_231)" fill-opacity="0.6"/>
<path d="M12.9071 370.474L1360.91 370.474L1360.91 369.474L12.9071 369.474L12.9071 370.474ZM12.9071 381.853L1360.91 381.853L1360.91 380.853L12.9071 380.853L12.9071 381.853ZM12.9071 393.231L1360.91 393.231L1360.91 392.231L12.9071 392.231L12.9071 393.231ZM12.9071 404.609L1360.91 404.609L1360.91 403.609L12.9071 403.609L12.9071 404.609ZM12.9071 415.987L1360.91 415.987L1360.91 414.987L12.9071 414.987L12.9071 415.987ZM12.9071 427.366L1360.91 427.366L1360.91 426.366L12.9071 426.366L12.9071 427.366ZM12.9071 438.744L1360.91 438.744L1360.91 437.744L12.9071 437.744L12.9071 438.744ZM12.9071 450.122L1360.91 450.122L1360.91 449.122L12.9071 449.122L12.9071 450.122ZM12.9071 461.5L1360.91 461.5L1360.91 460.5L12.9071 460.5L12.9071 461.5Z" fill="url(#paint5_linear_1369_231)" fill-opacity="0.6"/>
<g filter="url(#filter1_d_1369_231)">
<rect width="452" height="5.99995" rx="2.99997" transform="matrix(-1.12245e-07 -1 -1 1.55064e-07 19.9983 461)" fill="#7F5CFF"/>
</g>
<path d="M465 441L468.253 460.748L488 464L468.253 467.253L465 487L461.747 467.253L442 464L461.747 460.748L465 441Z" fill="white"/>
<defs>
<filter id="filter0_b_1369_231" x="-16.0015" y="-19.9997" width="1270" height="511" filterUnits="userSpaceOnUse" color-interpolation-filters="sRGB">
<feFlood flood-opacity="0" result="BackgroundImageFix"/>
<feGaussianBlur in="BackgroundImage" stdDeviation="15"/>
<feComposite in2="SourceAlpha" operator="in" result="effect1_backgroundBlur_1369_231"/>
<feBlend mode="normal" in="SourceGraphic" in2="effect1_backgroundBlur_1369_231" result="shape"/>
</filter>
<filter id="filter1_d_1369_231" x="0.998291" y="0.00012207" width="32" height="478" filterUnits="userSpaceOnUse" color-interpolation-filters="sRGB">
<feFlood flood-opacity="0" result="BackgroundImageFix"/>
<feColorMatrix in="SourceAlpha" type="matrix" values="0 0 0 0 0 0 0 0 0 0 0 0 0 0 0 0 0 0 127 0" result="hardAlpha"/>
<feOffset dy="4"/>
<feGaussianBlur stdDeviation="6.5"/>
<feComposite in2="hardAlpha" operator="out"/>
<feColorMatrix type="matrix" values="0 0 0 0 0.74902 0 0 0 0 0.227451 0 0 0 0 1 0 0 0 0.44 0"/>
<feBlend mode="normal" in2="BackgroundImageFix" result="effect1_dropShadow_1369_231"/>
<feBlend mode="normal" in="SourceGraphic" in2="effect1_dropShadow_1369_231" result="shape"/>
</filter>
<linearGradient id="paint0_linear_1369_231" x1="225.5" y1="0" x2="225.5" y2="1210" gradientUnits="userSpaceOnUse">
<stop stop-color="#3A4EFF" stop-opacity="0"/>
<stop offset="1" stop-color="#9C3AFF" stop-opacity="0.14"/>
</linearGradient>
<linearGradient id="paint1_linear_1369_231" x1="12.9072" y1="51.9559" x2="1349.27" y2="178.3" gradientUnits="userSpaceOnUse">
<stop stop-color="#A034D9" stop-opacity="0.34"/>
<stop offset="0.514801" stop-color="white" stop-opacity="0"/>
<stop offset="1" stop-color="white" stop-opacity="0"/>
</linearGradient>
<linearGradient id="paint2_linear_1369_231" x1="12.9072" y1="142.982" x2="1349.27" y2="269.326" gradientUnits="userSpaceOnUse">
<stop stop-color="#A034D9" stop-opacity="0.34"/>
<stop offset="0.514801" stop-color="white" stop-opacity="0"/>
<stop offset="1" stop-color="white" stop-opacity="0"/>
</linearGradient>
<linearGradient id="paint3_linear_1369_231" x1="12.9072" y1="233.155" x2="1349.27" y2="359.499" gradientUnits="userSpaceOnUse">
<stop stop-color="#A034D9" stop-opacity="0.34"/>
<stop offset="0.514801" stop-color="white" stop-opacity="0"/>
<stop offset="1" stop-color="white" stop-opacity="0"/>
</linearGradient>
<linearGradient id="paint4_linear_1369_231" x1="12.9072" y1="324.181" x2="1349.27" y2="450.525" gradientUnits="userSpaceOnUse">
<stop stop-color="#A034D9" stop-opacity="0.34"/>
<stop offset="0.514801" stop-color="white" stop-opacity="0"/>
<stop offset="1" stop-color="white" stop-opacity="0"/>
</linearGradient>
<linearGradient id="paint5_linear_1369_231" x1="12.9072" y1="415.486" x2="1349.27" y2="541.831" gradientUnits="userSpaceOnUse">
<stop stop-color="#A034D9" stop-opacity="0.34"/>
<stop offset="0.514801" stop-color="white" stop-opacity="0"/>
<stop offset="1" stop-color="white" stop-opacity="0"/>
</linearGradient>
</defs>
</svg>
