<svg width="1366" height="571" viewBox="0 0 1366 571" fill="none" xmlns="http://www.w3.org/2000/svg">
<g filter="url(#filter0_bi_1_542)">
<circle cx="1124.7" cy="466.501" r="24.5" fill="white" fill-opacity="0.01"/>
</g>
<g filter="url(#filter1_bi_1_542)">
<circle cx="1263.7" cy="161.501" r="47.5" fill="white" fill-opacity="0.01"/>
</g>
<g filter="url(#filter2_bi_1_542)">
<circle cx="925.701" cy="292.501" r="30.5" fill="white" fill-opacity="0.01"/>
</g>
<g filter="url(#filter3_b_1_542)">
<rect x="19.2009" y="17" width="633" height="537" rx="1" fill="url(#paint0_linear_1_542)"/>
</g>
<path d="M17.2009 17.0039L1365.2 17.0039L1365.2 16.0039L17.2009 16.0039L17.2009 17.0039ZM17.2009 39.4592L1365.2 39.4592L1365.2 38.4592L17.2009 38.4592L17.2009 39.4592ZM17.2009 61.9145L1365.2 61.9145L1365.2 60.9145L17.2009 60.9145L17.2009 61.9145ZM17.2009 84.3698L1365.2 84.3698L1365.2 83.3698L17.2009 83.3698L17.2009 84.3698ZM17.2009 106.825L1365.2 106.825L1365.2 105.825L17.2009 105.825L17.2009 106.825ZM17.2009 129.28L1365.2 129.28L1365.2 128.28L17.2009 128.28L17.2009 129.28ZM17.2009 151.736L1365.2 151.736L1365.2 150.736L17.2009 150.736L17.2009 151.736ZM17.2009 174.191L1365.2 174.191L1365.2 173.191L17.2009 173.191L17.2009 174.191ZM17.2009 196.646L1365.2 196.646L1365.2 195.646L17.2009 195.646L17.2009 196.646Z" fill="url(#paint1_linear_1_542)" fill-opacity="0.6"/>
<path d="M17.2009 196.646L1365.2 196.646L1365.2 195.646L17.2009 195.646L17.2009 196.646ZM17.2009 219.102L1365.2 219.102L1365.2 218.102L17.2009 218.102L17.2009 219.102ZM17.2009 241.557L1365.2 241.557L1365.2 240.557L17.2009 240.557L17.2009 241.557ZM17.2009 264.012L1365.2 264.012L1365.2 263.012L17.2009 263.012L17.2009 264.012ZM17.2009 286.468L1365.2 286.468L1365.2 285.468L17.2009 285.468L17.2009 286.468ZM17.2009 308.923L1365.2 308.923L1365.2 307.923L17.2009 307.923L17.2009 308.923ZM17.2009 331.378L1365.2 331.378L1365.2 330.378L17.2009 330.378L17.2009 331.378ZM17.2009 353.834L1365.2 353.834L1365.2 352.834L17.2009 352.834L17.2009 353.834ZM17.2009 376.289L1365.2 376.289L1365.2 375.289L17.2009 375.289L17.2009 376.289Z" fill="url(#paint2_linear_1_542)" fill-opacity="0.6"/>
<path d="M17.2009 374.605L1365.2 374.605L1365.2 373.605L17.2009 373.605L17.2009 374.605ZM17.2009 397.06L1365.2 397.06L1365.2 396.06L17.2009 396.06L17.2009 397.06ZM17.2009 419.516L1365.2 419.516L1365.2 418.516L17.2009 418.516L17.2009 419.516ZM17.2009 441.971L1365.2 441.971L1365.2 440.971L17.2009 440.971L17.2009 441.971ZM17.2009 464.426L1365.2 464.426L1365.2 463.426L17.2009 463.426L17.2009 464.426ZM17.2009 486.881L1365.2 486.881L1365.2 485.881L17.2009 485.881L17.2009 486.881ZM17.2009 509.337L1365.2 509.337L1365.2 508.337L17.2009 508.337L17.2009 509.337ZM17.2009 531.792L1365.2 531.792L1365.2 530.792L17.2009 530.792L17.2009 531.792ZM17.2009 554.247L1365.2 554.247L1365.2 553.247L17.2009 553.247L17.2009 554.247Z" fill="url(#paint3_linear_1_542)" fill-opacity="0.6"/>
<g filter="url(#filter4_d_1_542)">
<rect x="23.2012" y="17" width="537" height="5.99998" rx="2.99999" transform="rotate(90 23.2012 17)" fill="#BF3AFF"/>
</g>
<defs>
<filter id="filter0_bi_1_542" x="1000.2" y="342.001" width="249" height="249" filterUnits="userSpaceOnUse" color-interpolation-filters="sRGB">
<feFlood flood-opacity="0" result="BackgroundImageFix"/>
<feGaussianBlur in="BackgroundImage" stdDeviation="50"/>
<feComposite in2="SourceAlpha" operator="in" result="effect1_backgroundBlur_1_542"/>
<feBlend mode="normal" in="SourceGraphic" in2="effect1_backgroundBlur_1_542" result="shape"/>
<feColorMatrix in="SourceAlpha" type="matrix" values="0 0 0 0 0 0 0 0 0 0 0 0 0 0 0 0 0 0 127 0" result="hardAlpha"/>
<feOffset dy="4"/>
<feGaussianBlur stdDeviation="2"/>
<feComposite in2="hardAlpha" operator="arithmetic" k2="-1" k3="1"/>
<feColorMatrix type="matrix" values="0 0 0 0 1 0 0 0 0 1 0 0 0 0 1 0 0 0 0.15 0"/>
<feBlend mode="normal" in2="shape" result="effect2_innerShadow_1_542"/>
</filter>
<filter id="filter1_bi_1_542" x="1116.2" y="14.0015" width="295" height="295" filterUnits="userSpaceOnUse" color-interpolation-filters="sRGB">
<feFlood flood-opacity="0" result="BackgroundImageFix"/>
<feGaussianBlur in="BackgroundImage" stdDeviation="50"/>
<feComposite in2="SourceAlpha" operator="in" result="effect1_backgroundBlur_1_542"/>
<feBlend mode="normal" in="SourceGraphic" in2="effect1_backgroundBlur_1_542" result="shape"/>
<feColorMatrix in="SourceAlpha" type="matrix" values="0 0 0 0 0 0 0 0 0 0 0 0 0 0 0 0 0 0 127 0" result="hardAlpha"/>
<feOffset dy="4"/>
<feGaussianBlur stdDeviation="2"/>
<feComposite in2="hardAlpha" operator="arithmetic" k2="-1" k3="1"/>
<feColorMatrix type="matrix" values="0 0 0 0 1 0 0 0 0 1 0 0 0 0 1 0 0 0 0.15 0"/>
<feBlend mode="normal" in2="shape" result="effect2_innerShadow_1_542"/>
</filter>
<filter id="filter2_bi_1_542" x="795.201" y="162.001" width="261" height="261" filterUnits="userSpaceOnUse" color-interpolation-filters="sRGB">
<feFlood flood-opacity="0" result="BackgroundImageFix"/>
<feGaussianBlur in="BackgroundImage" stdDeviation="50"/>
<feComposite in2="SourceAlpha" operator="in" result="effect1_backgroundBlur_1_542"/>
<feBlend mode="normal" in="SourceGraphic" in2="effect1_backgroundBlur_1_542" result="shape"/>
<feColorMatrix in="SourceAlpha" type="matrix" values="0 0 0 0 0 0 0 0 0 0 0 0 0 0 0 0 0 0 127 0" result="hardAlpha"/>
<feOffset dy="4"/>
<feGaussianBlur stdDeviation="2"/>
<feComposite in2="hardAlpha" operator="arithmetic" k2="-1" k3="1"/>
<feColorMatrix type="matrix" values="0 0 0 0 1 0 0 0 0 1 0 0 0 0 1 0 0 0 0.15 0"/>
<feBlend mode="normal" in2="shape" result="effect2_innerShadow_1_542"/>
</filter>
<filter id="filter3_b_1_542" x="-10.7991" y="-13" width="693" height="597" filterUnits="userSpaceOnUse" color-interpolation-filters="sRGB">
<feFlood flood-opacity="0" result="BackgroundImageFix"/>
<feGaussianBlur in="BackgroundImage" stdDeviation="15"/>
<feComposite in2="SourceAlpha" operator="in" result="effect1_backgroundBlur_1_542"/>
<feBlend mode="normal" in="SourceGraphic" in2="effect1_backgroundBlur_1_542" result="shape"/>
</filter>
<filter id="filter4_d_1_542" x="0.201172" y="0" width="40" height="571" filterUnits="userSpaceOnUse" color-interpolation-filters="sRGB">
<feFlood flood-opacity="0" result="BackgroundImageFix"/>
<feColorMatrix in="SourceAlpha" type="matrix" values="0 0 0 0 0 0 0 0 0 0 0 0 0 0 0 0 0 0 127 0" result="hardAlpha"/>
<feOffset/>
<feGaussianBlur stdDeviation="8.5"/>
<feComposite in2="hardAlpha" operator="out"/>
<feColorMatrix type="matrix" values="0 0 0 0 0.74902 0 0 0 0 0.227451 0 0 0 0 1 0 0 0 0.4 0"/>
<feBlend mode="normal" in2="BackgroundImageFix" result="effect1_dropShadow_1_542"/>
<feBlend mode="normal" in="SourceGraphic" in2="effect1_dropShadow_1_542" result="shape"/>
</filter>
<linearGradient id="paint0_linear_1_542" x1="660.512" y1="257.124" x2="-4.53651" y2="273.144" gradientUnits="userSpaceOnUse">
<stop stop-color="#3A4EFF" stop-opacity="0"/>
<stop offset="1" stop-color="#D83AFF" stop-opacity="0.1"/>
</linearGradient>
<linearGradient id="paint1_linear_1_542" x1="17.201" y1="106.323" x2="1362.42" y2="170.767" gradientUnits="userSpaceOnUse">
<stop stop-color="#A034D9" stop-opacity="0.34"/>
<stop offset="0.514801" stop-color="white" stop-opacity="0"/>
<stop offset="1" stop-color="white" stop-opacity="0"/>
</linearGradient>
<linearGradient id="paint2_linear_1_542" x1="17.201" y1="285.965" x2="1362.42" y2="350.409" gradientUnits="userSpaceOnUse">
<stop stop-color="#A034D9" stop-opacity="0.34"/>
<stop offset="0.514801" stop-color="white" stop-opacity="0"/>
<stop offset="1" stop-color="white" stop-opacity="0"/>
</linearGradient>
<linearGradient id="paint3_linear_1_542" x1="17.201" y1="463.924" x2="1362.42" y2="528.368" gradientUnits="userSpaceOnUse">
<stop stop-color="#A034D9" stop-opacity="0.34"/>
<stop offset="0.514801" stop-color="white" stop-opacity="0"/>
<stop offset="1" stop-color="white" stop-opacity="0"/>
</linearGradient>
</defs>
</svg>
